<?xml version="1.0" encoding="UTF-8"?>
<svg id="svg191" width="192px" height="150px" version="1.0" viewBox="0 0 1920 1500" xml:space="preserve" xmlns="http://www.w3.org/2000/svg"><path id="path1984" d="m926.75 1433.8c-72.053-25.042-233.54-115.42-312.65-174.98-213.92-161.05-374.89-368.18-445.65-573.46-90.014-261.15-12.266-477.57 211.34-588.3 59.936-29.68 72.312-32.083 165.21-32.083 93.749 0 105.06 2.2519 170.21 33.894 53.197 25.836 91.422 55.807 160.78 126.06l90.99 92.171 44.01-53.629c59.892-72.982 131.3-130.16 209.01-167.38 59.361-28.425 73.675-31.125 165-31.125 93.865 0 104.18 2.0958 168.09 34.163 132 66.23 215.48 177.09 236.97 314.7 52.764 337.82-301.78 812.92-746.33 1000.1-73.953 31.139-81.062 32.346-116.99 19.859z" fill="#c63139" stroke-width="10"/></svg>
